<svg width="357" height="343" viewBox="0 0 357 343" fill="none" xmlns="http://www.w3.org/2000/svg">
<g filter="url(#filter0_i_1_130)">
<path fill-rule="evenodd" clip-rule="evenodd" d="M-28.0463 266.571C-34.1487 231.642 -46.9182 191.971 -26.06 162.268C-5.13867 132.475 38.2326 120.41 76.6398 117.492C110.099 114.949 137.194 153.043 170.193 147.356C215.874 139.482 242.368 69.0313 286.915 81.2498C326.055 91.9855 305.768 152.546 318.913 188.148C329.118 215.784 360.521 238.483 355.616 267.317C350.663 296.434 308.932 307.147 294.219 333.318C278.388 361.476 292.713 401.744 267.759 423.593C243.127 445.159 203.613 442.752 169.619 442.411C135.826 442.073 101.553 437.607 72.5441 421.637C43.7132 405.764 24.4937 379.585 7.26895 353.032C-10.1771 326.138 -22.6432 297.496 -28.0463 266.571Z" fill="#78C800" fill-opacity="0.35"/>
</g>
<path d="M198.083 75.187C195.433 75.187 193.285 77.339 193.285 79.9894V163.545C193.285 166.192 195.433 168.344 198.083 168.344C200.73 168.344 202.878 166.192 202.878 163.545V79.9894C202.878 77.339 200.73 75.187 198.083 75.187Z" fill="#9F7235"/>
<path d="M198.083 75.187C195.433 75.187 193.285 77.339 193.285 79.9894V163.545C193.285 166.192 195.433 168.344 198.083 168.344V75.187Z" fill="#B28D5D"/>
<path d="M244.978 126.484C242.317 122.109 203.245 74.6636 203.245 74.6636C200.265 69.0397 195.424 69.0397 192.437 74.6636C192.437 74.6636 153.468 121.488 150.711 126.484C147.946 131.478 148.114 142.04 150.711 146.839C155.355 155.461 238.055 155.887 244.978 146.839C248.333 142.456 247.641 130.856 244.978 126.484Z" fill="#0E9554"/>
<path d="M233.442 97.2886L201.922 51.3035C199.666 47.0532 196.013 47.0532 193.758 51.3035L162.241 97.2886C159.981 101.535 159.155 108.421 161.41 112.665H234.274C236.526 108.421 235.702 101.535 233.442 97.2886Z" fill="#159F57"/>
<path d="M172.55 80.6891C170.949 77.6687 170.949 72.7839 172.55 69.7673L194.942 27.5877C196.54 24.5673 199.136 24.5673 200.74 27.5877L223.128 69.7673C224.729 72.7839 224.729 77.6687 223.128 80.6891H172.55Z" fill="#1AAA5B"/>
<path d="M282.868 101.467C279.449 101.467 276.677 104.247 276.677 107.668V215.514C276.677 218.939 279.445 221.715 282.868 221.715C286.291 221.715 289.059 218.943 289.059 215.514V107.668C289.056 104.247 286.288 101.467 282.868 101.467Z" fill="#9F7235"/>
<path d="M282.868 101.467C279.449 101.467 276.677 104.247 276.677 107.668V215.514C276.677 218.939 279.445 221.715 282.868 221.715V101.467Z" fill="#B28D5D"/>
<path d="M343.395 167.681C339.957 162.035 289.528 100.792 289.528 100.792C285.679 93.5291 279.433 93.5291 275.576 100.792C275.576 100.792 225.281 161.228 221.714 167.681C218.147 174.118 218.365 187.759 221.714 193.95C227.712 205.083 334.448 205.636 343.394 193.95C347.728 188.291 346.836 173.32 343.395 167.681Z" fill="#15AA63"/>
<path d="M328.512 129.999L287.825 70.6434C284.913 65.1595 280.193 65.1595 277.286 70.6434L236.605 129.999C233.694 135.473 232.623 144.367 235.534 149.841H329.58C332.483 144.367 331.42 135.472 328.512 129.999Z" fill="#1EAE64"/>
<path d="M249.915 108.569C247.845 104.673 247.845 98.3612 249.915 94.4656L278.81 40.0298C280.876 36.1275 284.228 36.1275 286.294 40.0298L315.189 94.4656C317.26 98.3612 317.26 104.673 315.189 108.569H249.915Z" fill="#28B467"/>
<path d="M128.11 130.834C124.153 130.834 120.941 134.048 120.941 138.015V262.89C120.941 266.853 124.15 270.07 128.11 270.07C132.07 270.07 135.279 266.856 135.279 262.89V138.015C135.279 134.052 132.071 130.834 128.11 130.834Z" fill="#9F7235"/>
<path d="M128.11 130.834C124.153 130.834 120.941 134.048 120.941 138.015V262.89C120.941 266.853 124.15 270.07 128.11 270.07V130.834Z" fill="#B28D5D"/>
<path d="M198.198 207.5C194.22 200.966 135.824 130.052 135.824 130.052C131.366 121.638 124.131 121.638 119.67 130.052C119.67 130.052 61.4277 200.032 57.299 207.5C53.1703 214.961 53.424 230.749 57.299 237.923C64.2424 250.806 187.846 251.456 198.198 237.923C203.211 231.374 202.18 214.036 198.198 207.5Z" fill="#15AA63"/>
<path d="M180.963 163.865L133.85 95.1356C130.481 88.7833 125.016 88.7833 121.646 95.1356L74.5412 163.865C71.1714 170.213 69.9292 180.503 73.2989 186.848H182.198C185.568 180.5 184.333 170.209 180.963 163.865Z" fill="#1EAE64"/>
<path d="M89.9544 139.059C87.5589 134.547 87.5589 127.237 89.9544 122.729L123.419 59.6928C125.811 55.177 129.69 55.177 132.085 59.6928L165.551 122.729C167.946 127.237 167.946 134.547 165.551 139.059H89.9544Z" fill="#28B467"/>
<defs>
<filter id="filter0_i_1_130" x="-37.5344" y="79.8302" width="393.667" height="366.829" filterUnits="userSpaceOnUse" color-interpolation-filters="sRGB">
<feFlood flood-opacity="0" result="BackgroundImageFix"/>
<feBlend mode="normal" in="SourceGraphic" in2="BackgroundImageFix" result="shape"/>
<feColorMatrix in="SourceAlpha" type="matrix" values="0 0 0 0 0 0 0 0 0 0 0 0 0 0 0 0 0 0 127 0" result="hardAlpha"/>
<feOffset dy="4"/>
<feGaussianBlur stdDeviation="2"/>
<feComposite in2="hardAlpha" operator="arithmetic" k2="-1" k3="1"/>
<feColorMatrix type="matrix" values="0 0 0 0 0 0 0 0 0 0 0 0 0 0 0 0 0 0 0.25 0"/>
<feBlend mode="normal" in2="shape" result="effect1_innerShadow_1_130"/>
</filter>
</defs>
</svg>
