<svg width="101" height="101" viewBox="0 0 101 101" fill="none" xmlns="http://www.w3.org/2000/svg">
<path fill-rule="evenodd" clip-rule="evenodd" d="M5.08314 40.5065C7.10204 31.0849 12.2615 22.4485 19.4398 15.9432C52.6395 -14.116 105.019 16.0553 96.0459 59.7982C93.9149 70.1171 88.1946 79.5386 80.0069 86.2683C46.1342 114.421 -4.22625 83.3521 5.08314 40.5065ZM1.26965 61.2563C3.51288 71.463 9.00878 80.7724 16.8601 87.8385C53.0882 120.59 110.178 87.1656 99.7472 39.7214C97.8405 31.1971 93.6905 23.2337 87.8582 16.7283C53.3125 -21.5187 -9.72215 11.1202 1.26965 61.2563Z" fill="url(#paint0_linear_1_29)"/>
<path fill-rule="evenodd" clip-rule="evenodd" d="M81.8014 75.9494C81.8014 77.071 82.6987 78.0805 83.9325 78.0805C85.0541 78.0805 86.0636 77.1832 86.0636 75.9494C86.0636 74.8278 85.1663 73.8184 83.9325 73.8184C82.6987 73.8184 81.8014 74.8278 81.8014 75.9494ZM73.3893 67.5373C73.3893 68.6589 74.2866 69.6684 75.5204 69.6684C76.642 69.6684 77.6515 68.7711 77.6515 67.5373C77.6515 66.4157 76.7542 65.4063 75.5204 65.4063C74.2866 65.4063 73.3893 66.4157 73.3893 67.5373ZM81.8014 67.5373C81.8014 68.6589 82.6987 69.6684 83.9325 69.6684C85.0541 69.6684 86.0636 68.7711 86.0636 67.5373C86.0636 66.4157 85.1663 65.4063 83.9325 65.4063C82.6987 65.4063 81.8014 66.4157 81.8014 67.5373ZM90.2135 67.5373C90.2135 68.6589 91.1108 69.6684 92.3446 69.6684C93.4662 69.6684 94.4757 68.7711 94.4757 67.5373C94.4757 66.4157 93.5784 65.4063 92.3446 65.4063C91.1108 65.4063 90.2135 66.4157 90.2135 67.5373ZM64.9772 59.1252C64.9772 60.2468 65.8745 61.2563 67.1083 61.2563C68.2299 61.2563 69.2394 60.359 69.2394 59.1252C69.2394 58.0036 68.3421 56.9942 67.1083 56.9942C65.8745 56.9942 64.9772 58.0036 64.9772 59.1252ZM73.3893 59.1252C73.3893 60.2468 74.2866 61.2563 75.5204 61.2563C76.642 61.2563 77.6515 60.359 77.6515 59.1252C77.6515 58.0036 76.7542 56.9942 75.5204 56.9942C74.2866 56.9942 73.3893 58.0036 73.3893 59.1252ZM81.8014 59.1252C81.8014 60.2468 82.6987 61.2563 83.9325 61.2563C85.0541 61.2563 86.0636 60.359 86.0636 59.1252C86.0636 58.0036 85.1663 56.9942 83.9325 56.9942C82.6987 56.9942 81.8014 58.0036 81.8014 59.1252ZM90.2135 59.1252C90.2135 60.2468 91.1108 61.2563 92.3446 61.2563C93.4662 61.2563 94.4757 60.359 94.4757 59.1252C94.4757 58.0036 93.5784 56.9942 92.3446 56.9942C91.1108 56.9942 90.2135 58.0036 90.2135 59.1252ZM56.5652 50.7131C56.5652 51.8348 57.4624 52.8442 58.6962 52.8442C59.93 52.8442 60.8273 51.9469 60.8273 50.7131C60.8273 49.5915 59.93 48.5821 58.6962 48.5821C57.4624 48.5821 56.5652 49.5915 56.5652 50.7131ZM64.9772 50.7131C64.9772 51.8348 65.8745 52.8442 67.1083 52.8442C68.2299 52.8442 69.2394 51.9469 69.2394 50.7131C69.2394 49.5915 68.3421 48.5821 67.1083 48.5821C65.8745 48.5821 64.9772 49.5915 64.9772 50.7131ZM73.3893 50.7131C73.3893 51.8348 74.2866 52.8442 75.5204 52.8442C76.642 52.8442 77.6515 51.9469 77.6515 50.7131C77.6515 49.5915 76.7542 48.5821 75.5204 48.5821C74.2866 48.5821 73.3893 49.5915 73.3893 50.7131ZM81.8014 50.7131C81.8014 51.8348 82.6987 52.8442 83.9325 52.8442C85.0541 52.8442 86.0636 51.9469 86.0636 50.7131C86.0636 49.5915 85.1663 48.5821 83.9325 48.5821C82.6987 48.5821 81.8014 49.5915 81.8014 50.7131ZM90.2135 50.7131C90.2135 51.8348 91.1108 52.8442 92.3446 52.8442C93.4662 52.8442 94.4757 51.9469 94.4757 50.7131C94.4757 49.5915 93.5784 48.5821 92.3446 48.5821C91.1108 48.5821 90.2135 49.5915 90.2135 50.7131ZM48.1531 42.301C48.1531 43.4227 49.0504 44.4321 50.2841 44.4321C51.4057 44.4321 52.4152 43.5348 52.4152 42.301C52.4152 41.1794 51.5179 40.17 50.2841 40.17C49.0504 40.17 48.1531 41.1794 48.1531 42.301ZM73.3893 42.301C73.3893 43.4227 74.2866 44.4321 75.5204 44.4321C76.642 44.4321 77.6515 43.5348 77.6515 42.301C77.6515 41.1794 76.7542 40.17 75.5204 40.17C75.1839 40.17 74.8474 40.2821 74.6231 40.3943C74.2866 40.6186 74.0623 40.9551 73.7258 41.1794C73.5015 41.5159 73.3893 41.8524 73.3893 42.301ZM81.8014 42.301C81.8014 43.4227 82.6987 44.4321 83.9325 44.4321C85.0541 44.4321 86.0636 43.5348 86.0636 42.301C86.0636 41.1794 85.1663 40.17 83.9325 40.17C82.6987 40.17 81.8014 41.1794 81.8014 42.301ZM90.2135 42.301C90.2135 43.4227 91.1108 44.4321 92.3446 44.4321C93.4662 44.4321 94.4757 43.5348 94.4757 42.301C94.4757 41.1794 93.5784 40.17 92.3446 40.17C91.1108 40.17 90.2135 41.1794 90.2135 42.301ZM39.741 33.889C39.741 35.0106 40.6383 36.02 41.872 36.02C43.1058 36.02 44.0031 35.1227 44.0031 33.889C44.0031 32.7673 43.1058 31.7579 41.872 31.7579C40.6383 31.7579 39.741 32.7673 39.741 33.889ZM48.1531 33.889C48.1531 35.0106 49.0504 36.02 50.2841 36.02C51.4057 36.02 52.4152 35.1227 52.4152 33.889C52.4152 32.7673 51.5179 31.7579 50.2841 31.7579C49.0504 31.7579 48.1531 32.7673 48.1531 33.889ZM81.8014 33.889C81.8014 35.0106 82.6987 36.02 83.9325 36.02C85.0541 36.02 86.0636 35.1227 86.0636 33.889C86.0636 32.7673 85.1663 31.7579 83.9325 31.7579C82.6987 31.7579 81.8014 32.7673 81.8014 33.889ZM90.2135 33.889C90.2135 35.0106 91.1108 36.02 92.3446 36.02C93.4662 36.02 94.4757 35.1227 94.4757 33.889C94.4757 32.7673 93.5784 31.7579 92.3446 31.7579C91.1108 31.7579 90.2135 32.7673 90.2135 33.889ZM31.3289 25.4769C31.3289 26.5985 32.2262 27.6079 33.4599 27.6079C34.5815 27.6079 35.591 26.7106 35.591 25.4769C35.591 24.3552 34.6937 23.3458 33.4599 23.3458C32.2262 23.3458 31.3289 24.3552 31.3289 25.4769ZM39.741 25.4769C39.741 26.5985 40.6383 27.6079 41.872 27.6079C43.1058 27.6079 44.0031 26.7106 44.0031 25.4769C44.0031 24.3552 43.1058 23.3458 41.872 23.3458C40.6383 23.3458 39.741 24.3552 39.741 25.4769ZM48.1531 25.4769C48.1531 26.5985 49.0504 27.6079 50.2841 27.6079C51.4057 27.6079 52.4152 26.7106 52.4152 25.4769C52.4152 24.3552 51.5179 23.3458 50.2841 23.3458C49.0504 23.3458 48.1531 24.3552 48.1531 25.4769ZM56.5652 25.4769C56.5652 26.5985 57.4624 27.6079 58.6962 27.6079C59.1449 27.6079 59.4813 27.4958 59.8178 27.2714C60.0422 26.935 60.3786 26.7106 60.603 26.3741C60.7151 26.1498 60.8273 25.8133 60.8273 25.4769C60.8273 24.3552 59.93 23.3458 58.6962 23.3458C57.4624 23.3458 56.5652 24.3552 56.5652 25.4769ZM82.4744 26.935C82.8109 27.2714 83.3717 27.4958 83.9325 27.4958C85.0541 27.4958 86.0636 26.5985 86.0636 25.3647C86.0636 24.2431 85.1663 23.2336 83.9325 23.2336C83.7082 23.2336 83.4839 23.2336 83.3717 23.3458C83.0352 24.5796 82.8109 25.7012 82.4744 26.935ZM22.9168 17.0648C22.9168 18.1864 23.8141 19.1958 25.0478 19.1958C26.1695 19.1958 27.1789 18.2985 27.1789 17.0648C27.1789 15.831 26.2816 14.9337 25.0478 14.9337C23.8141 14.9337 22.9168 15.9432 22.9168 17.0648ZM31.3289 17.0648C31.3289 18.1864 32.2262 19.1958 33.4599 19.1958C34.5815 19.1958 35.591 18.2985 35.591 17.0648C35.591 15.831 34.6937 14.9337 33.4599 14.9337C32.2262 14.9337 31.3289 15.9432 31.3289 17.0648ZM39.741 17.0648C39.741 18.1864 40.6383 19.1958 41.872 19.1958C43.1058 19.1958 44.0031 18.2985 44.0031 17.0648C44.0031 15.831 43.1058 14.9337 41.872 14.9337C40.6383 14.9337 39.741 15.9432 39.741 17.0648ZM48.1531 17.0648C48.1531 18.1864 49.0504 19.1958 50.2841 19.1958C51.4057 19.1958 52.4152 18.2985 52.4152 17.0648C52.4152 15.831 51.5179 14.9337 50.2841 14.9337C49.0504 14.9337 48.1531 15.9432 48.1531 17.0648ZM56.5652 17.0648C56.5652 18.1864 57.4624 19.1958 58.6962 19.1958C59.93 19.1958 60.8273 18.2985 60.8273 17.0648C60.8273 15.831 59.93 14.9337 58.6962 14.9337C57.4624 14.9337 56.5652 15.9432 56.5652 17.0648ZM64.9772 17.0648C64.9772 18.1864 65.8745 19.1958 67.1083 19.1958C68.2299 19.1958 69.2394 18.2985 69.2394 17.0648C69.2394 15.831 68.3421 14.9337 67.1083 14.9337C65.8745 14.9337 64.9772 15.9432 64.9772 17.0648ZM73.3893 17.0648C73.3893 17.6256 73.6137 18.1864 73.9501 18.5229C75.1839 18.1864 76.4177 17.8499 77.4271 17.6256C77.4271 17.4012 77.5393 17.2891 77.5393 17.0648C77.5393 15.9432 76.642 14.9337 75.4082 14.9337C74.2866 14.9337 73.3893 15.9432 73.3893 17.0648ZM31.3289 8.65267C31.3289 9.77428 32.2262 10.7837 33.4599 10.7837C34.5815 10.7837 35.591 9.88644 35.591 8.65267C35.591 7.4189 34.6937 6.52161 33.4599 6.52161C32.2262 6.52161 31.3289 7.53106 31.3289 8.65267ZM39.741 8.65267C39.741 9.77428 40.6383 10.7837 41.872 10.7837C43.1058 10.7837 44.0031 9.88644 44.0031 8.65267C44.0031 7.4189 43.1058 6.52161 41.872 6.52161C40.6383 6.52161 39.741 7.53106 39.741 8.65267ZM48.1531 8.65267C48.1531 9.77428 49.0504 10.7837 50.2841 10.7837C51.4057 10.7837 52.4152 9.88644 52.4152 8.65267C52.4152 7.4189 51.5179 6.52161 50.2841 6.52161C49.0504 6.52161 48.1531 7.53106 48.1531 8.65267ZM56.5652 8.65267C56.5652 9.77428 57.4624 10.7837 58.6962 10.7837C59.93 10.7837 60.8273 9.88644 60.8273 8.65267C60.8273 7.4189 59.93 6.52161 58.6962 6.52161C57.4624 6.52161 56.5652 7.53106 56.5652 8.65267ZM64.9772 8.65267C64.9772 9.77428 65.8745 10.7837 67.1083 10.7837C68.2299 10.7837 69.2394 9.88644 69.2394 8.65267C69.2394 7.4189 68.3421 6.52161 67.1083 6.52161C65.8745 6.52161 64.9772 7.53106 64.9772 8.65267Z" fill="url(#paint1_linear_1_29)"/>
<path fill-rule="evenodd" clip-rule="evenodd" d="M55.2193 45.7781C56.6773 31.6458 67.2205 20.9904 81.3528 19.6445C80.0069 33.6647 69.3516 44.32 55.2193 45.7781ZM85.9514 15.0459C65.6502 15.3824 51.0693 30.0755 50.6206 50.3767C70.9218 49.928 85.6149 35.3471 85.9514 15.0459Z" fill="url(#paint2_linear_1_29)"/>
<path fill-rule="evenodd" clip-rule="evenodd" d="M82.4744 85.1467H85.1663V82.3426L18.6546 15.831L15.8506 15.7188V18.5229L82.4744 85.1467Z" fill="url(#paint3_linear_1_29)"/>
<path fill-rule="evenodd" clip-rule="evenodd" d="M6.54121 66.5279C7.32634 67.7616 8.22363 69.1076 9.23308 70.3413C15.6263 78.0805 23.0289 81.3331 29.8708 82.4548C30.8802 82.5669 31.8897 82.6791 32.8991 82.7912H35.7031C35.8153 82.7912 36.8248 82.6791 37.3856 82.6791C41.0869 82.3426 46.1341 80.4359 49.7233 77.1832C54.0976 73.1454 55.6678 68.8832 56.3408 64.7333C56.3408 64.2846 56.453 63.7238 56.453 63.2752V61.4806C56.453 60.9198 56.2286 59.686 56.1165 59.3495C54.6584 52.2834 48.826 48.4699 43.5544 48.4699C40.1896 48.4699 36.2639 50.1523 34.8059 54.8631C34.6937 55.3117 34.5815 55.8725 34.5815 56.3212V57.3306C34.5815 57.6671 34.918 58.7887 34.918 59.0131C35.8153 61.7049 38.2829 62.9387 40.3018 62.9387C42.4328 62.9387 44.676 61.3684 44.676 58.7887C44.676 57.7793 44.2274 56.4333 42.7693 56.4333C41.7598 56.4333 40.9747 57.1063 40.9747 58.2279C40.9747 58.3401 40.9747 58.6766 40.9747 58.6766C40.9747 59.1252 40.4139 59.2374 40.1896 59.2374C39.068 59.2374 38.1707 58.1158 38.1707 56.7698C38.1707 54.1901 40.5261 51.9469 43.5544 51.9469C48.0409 51.9469 52.4152 55.8725 52.8638 61.3684V63.0509C52.7517 64.6211 52.4152 66.3035 51.7422 67.986C51.5179 68.6589 51.0692 69.444 50.7327 70.117C47.0314 76.5102 40.7504 78.8656 35.7031 79.0899H33.0113C32.8991 79.0899 31.7775 78.9778 31.2167 78.8656C24.7113 77.9683 17.6452 75.0521 11.8128 67.6495C11.0277 66.64 10.3547 65.6306 9.68173 64.6211C6.76554 59.9103 4.52231 52.732 4.07367 46.0023V44.5443C3.84934 46.451 3.73718 48.3577 3.73718 50.3766C3.73718 56.0969 4.74663 61.4806 6.54121 66.5279Z" fill="url(#paint4_linear_1_29)"/>
<defs>
<linearGradient id="paint0_linear_1_29" x1="0" y1="0" x2="101" y2="0" gradientUnits="userSpaceOnUse">
<stop stop-color="#006838"/>
<stop offset="1" stop-color="#96CF24"/>
</linearGradient>
<linearGradient id="paint1_linear_1_29" x1="22.9168" y1="6.52161" x2="94.4757" y2="6.52161" gradientUnits="userSpaceOnUse">
<stop stop-color="#006838"/>
<stop offset="1" stop-color="#96CF24"/>
</linearGradient>
<linearGradient id="paint2_linear_1_29" x1="50.6206" y1="15.0459" x2="85.9514" y2="15.0459" gradientUnits="userSpaceOnUse">
<stop stop-color="#006838"/>
<stop offset="1" stop-color="#96CF24"/>
</linearGradient>
<linearGradient id="paint3_linear_1_29" x1="15.8506" y1="15.7188" x2="85.1663" y2="15.7188" gradientUnits="userSpaceOnUse">
<stop stop-color="#006838"/>
<stop offset="1" stop-color="#96CF24"/>
</linearGradient>
<linearGradient id="paint4_linear_1_29" x1="3.73718" y1="44.5443" x2="56.453" y2="44.5443" gradientUnits="userSpaceOnUse">
<stop stop-color="#006838"/>
<stop offset="1" stop-color="#96CF24"/>
</linearGradient>
</defs>
</svg>
