<svg width="21" height="21" viewBox="0 0 21 21" fill="none" xmlns="http://www.w3.org/2000/svg">
<path d="M9.66668 6.72396L13.3125 0.473957C14.8924 0.890624 16.2945 1.65451 17.5188 2.76562C18.7424 3.87673 19.632 5.19618 20.1875 6.72396H9.66668ZM6.77605 9.32812L3.20834 3.07812C4.14584 2.15798 5.23543 1.42882 6.47709 0.890624C7.71806 0.352429 9.05904 0.0833321 10.5 0.0833321C10.7257 0.0833321 10.9861 0.0961792 11.2813 0.121874C11.5764 0.148263 11.8455 0.178818 12.0886 0.21354L6.77605 9.32812ZM0.421885 13.1042C0.317719 12.6875 0.235427 12.2622 0.17501 11.8281C0.113899 11.3941 0.0833435 10.9514 0.0833435 10.5C0.0833435 9.26736 0.282996 8.10417 0.682302 7.01042C1.08161 5.91667 1.64584 4.9184 2.37501 4.01562L7.63543 13.1042H0.421885ZM7.71355 20.526C6.13369 20.1094 4.72744 19.3455 3.4948 18.2344C2.26216 17.1233 1.36807 15.8038 0.81251 14.276H11.3073L7.71355 20.526ZM10.5 20.9167C10.2396 20.9167 9.97501 20.8993 9.70626 20.8646C9.43682 20.8299 9.18057 20.7951 8.93751 20.7604L14.224 11.6719L17.7917 17.9219C16.8542 18.842 15.7649 19.5712 14.524 20.1094C13.2823 20.6476 11.941 20.9167 10.5 20.9167ZM18.625 16.9844L13.3646 7.89583H20.5781C20.6823 8.3125 20.7649 8.73785 20.8261 9.17188C20.8865 9.6059 20.9167 10.0486 20.9167 10.5C20.9167 11.7153 20.7042 12.8785 20.2792 13.9896C19.8535 15.1007 19.3021 16.099 18.625 16.9844Z" fill="white"/>
</svg>
