<svg width="25" height="25" viewBox="0 0 25 25" fill="none" xmlns="http://www.w3.org/2000/svg">
<g clip-path="url(#clip0_7_9)">
<path d="M20.9306 2.08333C20.9306 1.89916 20.8574 1.72252 20.7272 1.59229C20.5969 1.46205 20.4203 1.38889 20.2361 1.38889H4.95833C4.77415 1.38889 4.59752 1.46205 4.46728 1.59229C4.33705 1.72252 4.26389 1.89916 4.26389 2.08333V2.77778H20.9306V2.08333Z" fill="white"/>
<path d="M22.3056 4.86111C22.3056 4.67693 22.2324 4.5003 22.1022 4.37006C21.9719 4.23983 21.7953 4.16667 21.6111 4.16667H3.55556C3.37138 4.16667 3.19475 4.23983 3.06451 4.37006C2.93428 4.5003 2.86111 4.67693 2.86111 4.86111V5.55555H22.3056V4.86111Z" fill="white"/>
<path d="M22.3056 6.94444H2.69444C2.34819 6.94444 2.01611 7.08199 1.77127 7.32683C1.52643 7.57167 1.38889 7.90375 1.38889 8.25V20.9167C1.38889 21.2629 1.52643 21.595 1.77127 21.8398C2.01611 22.0847 2.34819 22.2222 2.69444 22.2222H22.3056C22.6518 22.2222 22.9839 22.0847 23.2287 21.8398C23.4736 21.595 23.6111 21.2629 23.6111 20.9167V8.25C23.6111 7.90375 23.4736 7.57167 23.2287 7.32683C22.9839 7.08199 22.6518 6.94444 22.3056 6.94444ZM5.94444 9.34028C6.35649 9.34028 6.75928 9.46246 7.10188 9.69138C7.44448 9.9203 7.71151 10.2457 7.86919 10.6264C8.02687 11.007 8.06813 11.4259 7.98774 11.83C7.90736 12.2342 7.70894 12.6054 7.41758 12.8967C7.12622 13.1881 6.75501 13.3865 6.35088 13.4669C5.94675 13.5473 5.52786 13.506 5.14718 13.3484C4.7665 13.1907 4.44113 12.9237 4.21221 12.581C3.98329 12.2384 3.86111 11.8357 3.86111 11.4236C3.86111 10.8711 4.0806 10.3412 4.4713 9.95047C4.862 9.55977 5.39191 9.34028 5.94444 9.34028ZM20.8333 19.4444H4.16666L9.34722 14.2569C9.43957 14.1653 9.56437 14.1139 9.69444 14.1139C9.82451 14.1139 9.94932 14.1653 10.0417 14.2569L12.5972 16.8125L16.1181 13.1944C16.2104 13.1028 16.3352 13.0514 16.4653 13.0514C16.5953 13.0514 16.7201 13.1028 16.8125 13.1944L20.8333 17.2153V19.4444Z" fill="white"/>
</g>
<defs>
<clipPath id="clip0_7_9">
<rect width="25" height="25" fill="white"/>
</clipPath>
</defs>
</svg>
