<svg width="20" height="18" viewBox="0 0 20 18" fill="none" xmlns="http://www.w3.org/2000/svg">
<path d="M14.25 7.5L11.75 10L12.8 11.05L13.45 10.4C13.35 11.2833 12.975 12.021 12.325 12.613C11.675 13.2043 10.9 13.5 10 13.5C9.76667 13.5 9.55 13.4793 9.35 13.438C9.15 13.396 8.95 13.3333 8.75 13.25L7.65 14.35C8 14.55 8.371 14.7083 8.763 14.825C9.15433 14.9417 9.56667 15 10 15C11.3333 15 12.4707 14.55 13.412 13.65C14.354 12.75 14.8667 11.65 14.95 10.35L15.7 11.05L16.75 10L14.25 7.5ZM5.75 12.5L8.25 10L7.2 8.95L6.55 9.6C6.65 8.71667 7.025 7.979 7.675 7.387C8.325 6.79567 9.1 6.5 10 6.5C10.2333 6.5 10.45 6.52067 10.65 6.562C10.85 6.604 11.05 6.66667 11.25 6.75L12.35 5.65C12 5.45 11.6293 5.29167 11.238 5.175C10.846 5.05833 10.4333 5 10 5C8.66667 5 7.52933 5.45 6.588 6.35C5.646 7.25 5.13333 8.35 5.05 9.65L4.3 8.95L3.25 10L5.75 12.5ZM2 18C1.45 18 0.979333 17.8043 0.588 17.413C0.196 17.021 0 16.55 0 16V4C0 3.45 0.196 2.97933 0.588 2.588C0.979333 2.196 1.45 2 2 2H5.15L7 0H13L14.85 2H18C18.55 2 19.021 2.196 19.413 2.588C19.8043 2.97933 20 3.45 20 4V16C20 16.55 19.8043 17.021 19.413 17.413C19.021 17.8043 18.55 18 18 18H2Z" fill="white"/>
</svg>
